G04*
G04 #@! TF.GenerationSoftware,Altium Limited,Altium Designer,19.0.10 (269)*
G04*
G04 Layer_Color=16711935*
%FSLAX25Y25*%
%MOIN*%
G70*
G01*
G75*
%ADD23C,0.06706*%
%ADD24R,0.06706X0.06706*%
D23*
X687500Y292000D02*
D03*
X677500D02*
D03*
X687500Y302000D02*
D03*
X677500D02*
D03*
X687500Y312000D02*
D03*
X677500D02*
D03*
X687500Y322000D02*
D03*
X677500D02*
D03*
X687500Y332000D02*
D03*
X629000Y486500D02*
D03*
Y476500D02*
D03*
Y466500D02*
D03*
Y456500D02*
D03*
Y446500D02*
D03*
Y436500D02*
D03*
Y426500D02*
D03*
Y416500D02*
D03*
Y406500D02*
D03*
Y396500D02*
D03*
Y386500D02*
D03*
Y376500D02*
D03*
Y366500D02*
D03*
X560000Y385500D02*
D03*
X570000Y395500D02*
D03*
X560000D02*
D03*
X570000Y405500D02*
D03*
X560000D02*
D03*
X570000Y415500D02*
D03*
X560000D02*
D03*
X570000Y425500D02*
D03*
X560000D02*
D03*
X570000Y435500D02*
D03*
X560000D02*
D03*
X570000Y445500D02*
D03*
X560000D02*
D03*
X570000Y455500D02*
D03*
X560000D02*
D03*
X570000Y465500D02*
D03*
X560000D02*
D03*
X570000Y475500D02*
D03*
X560000D02*
D03*
X597500Y366000D02*
D03*
Y376000D02*
D03*
Y386000D02*
D03*
D24*
X677500Y332000D02*
D03*
X629000Y356500D02*
D03*
X570000Y385500D02*
D03*
X597500Y396000D02*
D03*
M02*
