G04*
G04 #@! TF.GenerationSoftware,Altium Limited,Altium Designer,19.0.10 (269)*
G04*
G04 Layer_Color=8421504*
%FSLAX25Y25*%
%MOIN*%
G70*
G01*
G75*
%ADD15R,0.08071X0.02992*%
%ADD16R,0.09449X0.02362*%
%ADD17R,0.02756X0.01181*%
%ADD18R,0.03937X0.01181*%
D15*
X615976Y315500D02*
D03*
X602000D02*
D03*
X615976Y320500D02*
D03*
X602000D02*
D03*
X615976Y325500D02*
D03*
X602000D02*
D03*
X615976Y330500D02*
D03*
X602000D02*
D03*
X615976Y335500D02*
D03*
X602000D02*
D03*
Y310500D02*
D03*
Y305500D02*
D03*
Y300500D02*
D03*
Y295500D02*
D03*
Y290500D02*
D03*
X615976Y310500D02*
D03*
Y305500D02*
D03*
Y300500D02*
D03*
Y295500D02*
D03*
Y290500D02*
D03*
D16*
X528000Y405500D02*
D03*
X513827D02*
D03*
X528000Y410500D02*
D03*
X513827D02*
D03*
X528000Y415500D02*
D03*
X513827D02*
D03*
Y420500D02*
D03*
X528000Y425500D02*
D03*
X513827D02*
D03*
D17*
X655500Y449720D02*
D03*
Y451689D02*
D03*
Y453657D02*
D03*
Y455626D02*
D03*
Y457594D02*
D03*
Y459563D02*
D03*
Y461531D02*
D03*
Y463500D02*
D03*
Y465469D02*
D03*
Y467437D02*
D03*
Y469406D02*
D03*
Y471374D02*
D03*
Y473343D02*
D03*
Y475311D02*
D03*
D18*
X665933Y446610D02*
D03*
Y478421D02*
D03*
M02*
