G04*
G04 #@! TF.GenerationSoftware,Altium Limited,Altium Designer,19.0.10 (269)*
G04*
G04 Layer_Color=8388736*
%FSLAX25Y25*%
%MOIN*%
G70*
G01*
G75*
%ADD19R,0.08871X0.03792*%
%ADD20R,0.10249X0.03162*%
%ADD21R,0.03556X0.01981*%
%ADD22R,0.04737X0.01981*%
%ADD23C,0.06706*%
%ADD24R,0.06706X0.06706*%
D19*
X615976Y315500D02*
D03*
X602000D02*
D03*
X615976Y320500D02*
D03*
X602000D02*
D03*
X615976Y325500D02*
D03*
X602000D02*
D03*
X615976Y330500D02*
D03*
X602000D02*
D03*
X615976Y335500D02*
D03*
X602000D02*
D03*
Y310500D02*
D03*
Y305500D02*
D03*
Y300500D02*
D03*
Y295500D02*
D03*
Y290500D02*
D03*
X615976Y310500D02*
D03*
Y305500D02*
D03*
Y300500D02*
D03*
Y295500D02*
D03*
Y290500D02*
D03*
D20*
X528000Y405500D02*
D03*
X513827D02*
D03*
X528000Y410500D02*
D03*
X513827D02*
D03*
X528000Y415500D02*
D03*
X513827D02*
D03*
Y420500D02*
D03*
X528000Y425500D02*
D03*
X513827D02*
D03*
D21*
X655500Y449720D02*
D03*
Y451689D02*
D03*
Y453657D02*
D03*
Y455626D02*
D03*
Y457594D02*
D03*
Y459563D02*
D03*
Y461531D02*
D03*
Y463500D02*
D03*
Y465469D02*
D03*
Y467437D02*
D03*
Y469406D02*
D03*
Y471374D02*
D03*
Y473343D02*
D03*
Y475311D02*
D03*
D22*
X665933Y446610D02*
D03*
Y478421D02*
D03*
D23*
X687500Y292000D02*
D03*
X677500D02*
D03*
X687500Y302000D02*
D03*
X677500D02*
D03*
X687500Y312000D02*
D03*
X677500D02*
D03*
X687500Y322000D02*
D03*
X677500D02*
D03*
X687500Y332000D02*
D03*
X629000Y486500D02*
D03*
Y476500D02*
D03*
Y466500D02*
D03*
Y456500D02*
D03*
Y446500D02*
D03*
Y436500D02*
D03*
Y426500D02*
D03*
Y416500D02*
D03*
Y406500D02*
D03*
Y396500D02*
D03*
Y386500D02*
D03*
Y376500D02*
D03*
Y366500D02*
D03*
X560000Y385500D02*
D03*
X570000Y395500D02*
D03*
X560000D02*
D03*
X570000Y405500D02*
D03*
X560000D02*
D03*
X570000Y415500D02*
D03*
X560000D02*
D03*
X570000Y425500D02*
D03*
X560000D02*
D03*
X570000Y435500D02*
D03*
X560000D02*
D03*
X570000Y445500D02*
D03*
X560000D02*
D03*
X570000Y455500D02*
D03*
X560000D02*
D03*
X570000Y465500D02*
D03*
X560000D02*
D03*
X570000Y475500D02*
D03*
X560000D02*
D03*
X597500Y366000D02*
D03*
Y376000D02*
D03*
Y386000D02*
D03*
D24*
X677500Y332000D02*
D03*
X629000Y356500D02*
D03*
X570000Y385500D02*
D03*
X597500Y396000D02*
D03*
M02*
