G04*
G04 #@! TF.GenerationSoftware,Altium Limited,Altium Designer,19.0.10 (269)*
G04*
G04 Layer_Physical_Order=1*
G04 Layer_Color=255*
%FSLAX25Y25*%
%MOIN*%
G70*
G01*
G75*
%ADD14C,0.00800*%
%ADD15R,0.08071X0.02992*%
%ADD16R,0.09449X0.02362*%
%ADD17R,0.02756X0.01181*%
%ADD18R,0.03937X0.01181*%
%ADD25C,0.01200*%
%ADD26C,0.02000*%
%ADD27C,0.05906*%
%ADD28R,0.05906X0.05906*%
%ADD29C,0.05000*%
G36*
X693364Y495347D02*
X693902Y495124D01*
X694387Y494800D01*
X694800Y494387D01*
X695124Y493902D01*
X695347Y493364D01*
X695461Y492792D01*
Y492500D01*
Y281500D01*
Y281208D01*
X695347Y280636D01*
X695124Y280098D01*
X694800Y279613D01*
X694387Y279200D01*
X693902Y278876D01*
X693364Y278653D01*
X692792Y278539D01*
X499708D01*
X499136Y278653D01*
X498597Y278876D01*
X498113Y279200D01*
X497700Y279613D01*
X497376Y280098D01*
X497153Y280636D01*
X497039Y281208D01*
Y281500D01*
Y492500D01*
Y492792D01*
X497153Y493364D01*
X497376Y493902D01*
X497700Y494387D01*
X498113Y494800D01*
X498597Y495124D01*
X499136Y495347D01*
X499708Y495461D01*
X692792D01*
X693364Y495347D01*
D02*
G37*
%LPC*%
G36*
X629500Y490421D02*
Y487000D01*
X632921D01*
X632851Y487532D01*
X632453Y488493D01*
X631819Y489319D01*
X630993Y489953D01*
X630032Y490351D01*
X629500Y490421D01*
D02*
G37*
G36*
X628500D02*
X627968Y490351D01*
X627007Y489953D01*
X626181Y489319D01*
X625547Y488493D01*
X625149Y487532D01*
X625079Y487000D01*
X628500D01*
Y490421D01*
D02*
G37*
G36*
X632921Y486000D02*
X629500D01*
Y482579D01*
X630032Y482649D01*
X630993Y483047D01*
X631819Y483681D01*
X632453Y484507D01*
X632851Y485468D01*
X632921Y486000D01*
D02*
G37*
G36*
X628500D02*
X625079D01*
X625149Y485468D01*
X625547Y484507D01*
X626181Y483681D01*
X627007Y483047D01*
X627968Y482649D01*
X628500Y482579D01*
Y486000D01*
D02*
G37*
G36*
X668902Y480012D02*
X666433D01*
Y478921D01*
X668902D01*
Y480012D01*
D02*
G37*
G36*
X665433D02*
X662965D01*
Y478921D01*
X665433D01*
Y480012D01*
D02*
G37*
G36*
X668902Y477921D02*
X666433D01*
Y476831D01*
X668902D01*
Y477921D01*
D02*
G37*
G36*
X665433D02*
X662965D01*
Y476831D01*
X665433D01*
Y477921D01*
D02*
G37*
G36*
X560500Y479421D02*
Y476000D01*
X563921D01*
X563851Y476532D01*
X563453Y477493D01*
X562819Y478319D01*
X561993Y478953D01*
X561032Y479351D01*
X560500Y479421D01*
D02*
G37*
G36*
X559500D02*
X558968Y479351D01*
X558007Y478953D01*
X557181Y478319D01*
X556547Y477493D01*
X556149Y476532D01*
X556079Y476000D01*
X559500D01*
Y479421D01*
D02*
G37*
G36*
X657878Y476902D02*
X656000D01*
Y475811D01*
X657878D01*
Y476902D01*
D02*
G37*
G36*
X655000D02*
X653122D01*
Y475811D01*
X655000D01*
Y476902D01*
D02*
G37*
G36*
X563921Y475000D02*
X560500D01*
Y471579D01*
X561032Y471649D01*
X561993Y472047D01*
X562819Y472681D01*
X563453Y473507D01*
X563851Y474468D01*
X563921Y475000D01*
D02*
G37*
G36*
X559500D02*
X556079D01*
X556149Y474468D01*
X556547Y473507D01*
X557181Y472681D01*
X558007Y472047D01*
X558968Y471649D01*
X559500Y471579D01*
Y475000D01*
D02*
G37*
G36*
X570000Y479487D02*
X568968Y479351D01*
X568007Y478953D01*
X567181Y478319D01*
X566547Y477493D01*
X566149Y476532D01*
X566013Y475500D01*
X566149Y474468D01*
X566547Y473507D01*
X567181Y472681D01*
X568007Y472047D01*
X568968Y471649D01*
X570000Y471513D01*
X571032Y471649D01*
X571993Y472047D01*
X572819Y472681D01*
X573453Y473507D01*
X573851Y474468D01*
X573987Y475500D01*
X573851Y476532D01*
X573453Y477493D01*
X572819Y478319D01*
X571993Y478953D01*
X571032Y479351D01*
X570000Y479487D01*
D02*
G37*
G36*
X629000Y480487D02*
X627968Y480351D01*
X627007Y479953D01*
X626181Y479319D01*
X625547Y478493D01*
X625149Y477532D01*
X625013Y476500D01*
X625149Y475468D01*
X625547Y474507D01*
X626181Y473681D01*
X627007Y473047D01*
X627968Y472649D01*
X629000Y472513D01*
X630032Y472649D01*
X630993Y473047D01*
X631819Y473681D01*
X632453Y474507D01*
X632687Y475073D01*
X638909D01*
X641274Y472707D01*
X641412Y471431D01*
X637909Y467927D01*
X632687D01*
X632453Y468493D01*
X631819Y469319D01*
X630993Y469953D01*
X630032Y470351D01*
X629000Y470487D01*
X627968Y470351D01*
X627007Y469953D01*
X626181Y469319D01*
X625547Y468493D01*
X625520Y468427D01*
X609000D01*
X609000Y468427D01*
X608454Y468319D01*
X607991Y468009D01*
X607991Y468009D01*
X603491Y463509D01*
X603181Y463046D01*
X603073Y462500D01*
X603073Y462500D01*
Y446591D01*
X584351Y427870D01*
X583427Y428253D01*
Y432500D01*
X583427Y432500D01*
X583319Y433046D01*
X583009Y433509D01*
X583009Y433509D01*
X580009Y436509D01*
X579546Y436819D01*
X579000Y436927D01*
X579000Y436927D01*
X573687D01*
X573453Y437493D01*
X572819Y438319D01*
X571993Y438953D01*
X571032Y439351D01*
X570000Y439487D01*
X568968Y439351D01*
X568007Y438953D01*
X567181Y438319D01*
X566547Y437493D01*
X566149Y436532D01*
X566013Y435500D01*
X566149Y434468D01*
X566547Y433507D01*
X567181Y432681D01*
X568007Y432047D01*
X568968Y431649D01*
X570000Y431513D01*
X571032Y431649D01*
X571993Y432047D01*
X572819Y432681D01*
X573453Y433507D01*
X573687Y434073D01*
X578409D01*
X580573Y431909D01*
Y426927D01*
X573687D01*
X573453Y427493D01*
X572819Y428319D01*
X571993Y428953D01*
X571032Y429351D01*
X570000Y429487D01*
X568968Y429351D01*
X568007Y428953D01*
X567181Y428319D01*
X566547Y427493D01*
X566149Y426532D01*
X566013Y425500D01*
X566149Y424468D01*
X566547Y423507D01*
X567181Y422681D01*
X568007Y422047D01*
X568968Y421649D01*
X570000Y421513D01*
X571032Y421649D01*
X571993Y422047D01*
X572819Y422681D01*
X573453Y423507D01*
X573687Y424073D01*
X584000D01*
X584000Y424073D01*
X584546Y424181D01*
X585009Y424491D01*
X605509Y444991D01*
X605509Y444991D01*
X605819Y445454D01*
X605927Y446000D01*
X605927Y446000D01*
Y461909D01*
X609591Y465573D01*
X625135D01*
X625149Y465468D01*
X625547Y464507D01*
X626181Y463681D01*
X627007Y463047D01*
X627968Y462649D01*
X629000Y462513D01*
X630032Y462649D01*
X630993Y463047D01*
X631819Y463681D01*
X632453Y464507D01*
X632687Y465073D01*
X638140D01*
X638592Y464111D01*
X636991Y462509D01*
X636681Y462046D01*
X636573Y461500D01*
X636573Y461500D01*
Y459591D01*
X634909Y457927D01*
X632687D01*
X632453Y458493D01*
X631819Y459319D01*
X630993Y459953D01*
X630032Y460351D01*
X629000Y460487D01*
X627968Y460351D01*
X627007Y459953D01*
X626181Y459319D01*
X625547Y458493D01*
X625520Y458427D01*
X612000D01*
X612000Y458427D01*
X611454Y458319D01*
X610991Y458009D01*
X610991Y458009D01*
X607991Y455009D01*
X607681Y454546D01*
X607573Y454000D01*
X607573Y454000D01*
Y445591D01*
X578909Y416927D01*
X573687D01*
X573453Y417493D01*
X572819Y418319D01*
X571993Y418953D01*
X571032Y419351D01*
X570000Y419487D01*
X568968Y419351D01*
X568007Y418953D01*
X567181Y418319D01*
X566547Y417493D01*
X566149Y416532D01*
X566013Y415500D01*
X566149Y414468D01*
X566547Y413507D01*
X567181Y412681D01*
X568007Y412047D01*
X568968Y411649D01*
X570000Y411513D01*
X571032Y411649D01*
X571993Y412047D01*
X572819Y412681D01*
X573453Y413507D01*
X573687Y414073D01*
X579500D01*
X579500Y414073D01*
X580046Y414181D01*
X580509Y414491D01*
X610009Y443991D01*
X610319Y444454D01*
X610427Y445000D01*
X610427Y445000D01*
Y453409D01*
X612591Y455573D01*
X625135D01*
X625149Y455468D01*
X625547Y454507D01*
X626181Y453681D01*
X627007Y453047D01*
X627968Y452649D01*
X629000Y452513D01*
X630032Y452649D01*
X630993Y453047D01*
X631819Y453681D01*
X632453Y454507D01*
X632687Y455073D01*
X635500D01*
X635500Y455073D01*
X636046Y455181D01*
X636509Y455491D01*
X637149Y456130D01*
X638073Y455747D01*
Y452091D01*
X633909Y447927D01*
X632687D01*
X632453Y448493D01*
X631819Y449319D01*
X630993Y449953D01*
X630032Y450351D01*
X629000Y450487D01*
X627968Y450351D01*
X627007Y449953D01*
X626181Y449319D01*
X625547Y448493D01*
X625149Y447532D01*
X625013Y446500D01*
X625149Y445468D01*
X625547Y444507D01*
X626181Y443681D01*
X627007Y443047D01*
X627968Y442649D01*
X629000Y442513D01*
X630032Y442649D01*
X630993Y443047D01*
X631819Y443681D01*
X632453Y444507D01*
X632687Y445073D01*
X634500D01*
X634500Y445073D01*
X635046Y445181D01*
X635509Y445491D01*
X638649Y448630D01*
X639573Y448247D01*
Y444091D01*
X633611Y438130D01*
X632548Y438264D01*
X632453Y438493D01*
X631819Y439319D01*
X630993Y439953D01*
X630032Y440351D01*
X629000Y440487D01*
X627968Y440351D01*
X627007Y439953D01*
X626181Y439319D01*
X625547Y438493D01*
X625520Y438427D01*
X620500D01*
X620500Y438427D01*
X619954Y438319D01*
X619491Y438009D01*
X619491Y438009D01*
X588409Y406927D01*
X573687D01*
X573453Y407493D01*
X572819Y408319D01*
X571993Y408953D01*
X571032Y409351D01*
X570000Y409487D01*
X568968Y409351D01*
X568007Y408953D01*
X567181Y408319D01*
X566547Y407493D01*
X566149Y406532D01*
X566013Y405500D01*
X566149Y404468D01*
X566547Y403507D01*
X567181Y402681D01*
X568007Y402047D01*
X568968Y401649D01*
X570000Y401513D01*
X571032Y401649D01*
X571993Y402047D01*
X572819Y402681D01*
X573453Y403507D01*
X573687Y404073D01*
X589000D01*
X589000Y404073D01*
X589546Y404181D01*
X590009Y404491D01*
X621091Y435573D01*
X625135D01*
X625149Y435468D01*
X625547Y434507D01*
X626181Y433681D01*
X627007Y433047D01*
X627968Y432649D01*
X629000Y432513D01*
X630032Y432649D01*
X630993Y433047D01*
X631819Y433681D01*
X632453Y434507D01*
X632687Y435073D01*
X634000D01*
X634000Y435073D01*
X634546Y435181D01*
X635009Y435491D01*
X640306Y440788D01*
X641230Y440405D01*
Y434749D01*
X634409Y427927D01*
X632687D01*
X632453Y428493D01*
X631819Y429319D01*
X630993Y429953D01*
X630032Y430351D01*
X629000Y430487D01*
X627968Y430351D01*
X627007Y429953D01*
X626181Y429319D01*
X625547Y428493D01*
X625149Y427532D01*
X625013Y426500D01*
X625149Y425468D01*
X625547Y424507D01*
X626181Y423681D01*
X627007Y423047D01*
X627968Y422649D01*
X629000Y422513D01*
X630032Y422649D01*
X630993Y423047D01*
X631819Y423681D01*
X632453Y424507D01*
X632687Y425073D01*
X635000D01*
X635000Y425073D01*
X635546Y425181D01*
X636009Y425491D01*
X641706Y431187D01*
X642630Y430805D01*
Y426649D01*
X633909Y417927D01*
X632687D01*
X632453Y418493D01*
X631819Y419319D01*
X630993Y419953D01*
X630032Y420351D01*
X629000Y420487D01*
X627968Y420351D01*
X627007Y419953D01*
X626181Y419319D01*
X625547Y418493D01*
X625313Y417927D01*
X605500D01*
X604954Y417819D01*
X604491Y417509D01*
X604491Y417509D01*
X583909Y396927D01*
X573687D01*
X573453Y397493D01*
X572819Y398319D01*
X571993Y398953D01*
X571032Y399351D01*
X570000Y399487D01*
X568968Y399351D01*
X568007Y398953D01*
X567181Y398319D01*
X566547Y397493D01*
X566149Y396532D01*
X566013Y395500D01*
X566149Y394468D01*
X566547Y393507D01*
X567181Y392681D01*
X568007Y392047D01*
X568968Y391649D01*
X570000Y391513D01*
X571032Y391649D01*
X571993Y392047D01*
X572819Y392681D01*
X573453Y393507D01*
X573687Y394073D01*
X584500D01*
X584500Y394073D01*
X585046Y394181D01*
X585509Y394491D01*
X606091Y415073D01*
X625313D01*
X625547Y414507D01*
X626181Y413681D01*
X627007Y413047D01*
X627968Y412649D01*
X629000Y412513D01*
X630032Y412649D01*
X630993Y413047D01*
X631819Y413681D01*
X632453Y414507D01*
X632687Y415073D01*
X634500D01*
X634500Y415073D01*
X635046Y415181D01*
X635509Y415491D01*
X643186Y423167D01*
X644110Y422785D01*
Y416629D01*
X635909Y408427D01*
X632480D01*
X632453Y408493D01*
X631819Y409319D01*
X630993Y409953D01*
X630032Y410351D01*
X629000Y410487D01*
X627968Y410351D01*
X627007Y409953D01*
X626181Y409319D01*
X625547Y408493D01*
X625149Y407532D01*
X625013Y406500D01*
X625149Y405468D01*
X625547Y404507D01*
X626181Y403681D01*
X627007Y403047D01*
X627968Y402649D01*
X629000Y402513D01*
X630032Y402649D01*
X630993Y403047D01*
X631819Y403681D01*
X632453Y404507D01*
X632851Y405468D01*
X632865Y405573D01*
X636500D01*
X636500Y405573D01*
X637046Y405681D01*
X637509Y405991D01*
X644806Y413287D01*
X645730Y412905D01*
Y409249D01*
X634409Y397927D01*
X632687D01*
X632453Y398493D01*
X631819Y399319D01*
X630993Y399953D01*
X630032Y400351D01*
X629000Y400487D01*
X627968Y400351D01*
X627007Y399953D01*
X626181Y399319D01*
X625547Y398493D01*
X625313Y397927D01*
X601453D01*
Y399953D01*
X593547D01*
Y392047D01*
X601453D01*
Y395073D01*
X625313D01*
X625547Y394507D01*
X626181Y393681D01*
X627007Y393047D01*
X627968Y392649D01*
X629000Y392513D01*
X630032Y392649D01*
X630993Y393047D01*
X631819Y393681D01*
X632453Y394507D01*
X632687Y395073D01*
X635000D01*
X635000Y395073D01*
X635546Y395181D01*
X636009Y395491D01*
X646206Y405688D01*
X647130Y405305D01*
Y400649D01*
X634409Y387927D01*
X632687D01*
X632453Y388493D01*
X631819Y389319D01*
X630993Y389953D01*
X630032Y390351D01*
X629000Y390487D01*
X627968Y390351D01*
X627007Y389953D01*
X626181Y389319D01*
X625547Y388493D01*
X625149Y387532D01*
X625135Y387427D01*
X601187D01*
X600953Y387993D01*
X600319Y388819D01*
X599493Y389453D01*
X598532Y389851D01*
X597500Y389987D01*
X596468Y389851D01*
X595507Y389453D01*
X594681Y388819D01*
X594047Y387993D01*
X593649Y387032D01*
X593513Y386000D01*
X593649Y384968D01*
X594047Y384007D01*
X594335Y383631D01*
X593842Y382631D01*
X575176D01*
X573953Y383854D01*
Y389453D01*
X566047D01*
Y387131D01*
X563603D01*
X563453Y387493D01*
X562819Y388319D01*
X561993Y388953D01*
X561032Y389351D01*
X560000Y389487D01*
X558968Y389351D01*
X558007Y388953D01*
X557181Y388319D01*
X556547Y387493D01*
X556397Y387131D01*
X555176D01*
X551131Y391176D01*
Y398500D01*
X551007Y399124D01*
X550654Y399654D01*
X543653Y406653D01*
X543124Y407007D01*
X542500Y407131D01*
X534432D01*
X533724Y407838D01*
Y408319D01*
X533724Y408681D01*
Y410000D01*
X528000D01*
X522276D01*
Y408681D01*
X522276Y407681D01*
X522276Y407319D01*
Y403319D01*
X533724D01*
Y403869D01*
X541824D01*
X543831Y401862D01*
X543265Y401057D01*
X542414Y401410D01*
X541500Y401530D01*
X540586Y401410D01*
X539735Y401057D01*
X539004Y400496D01*
X538443Y399765D01*
X538303Y399427D01*
X520091D01*
X517124Y402395D01*
X517506Y403319D01*
X519551D01*
Y407681D01*
X519551D01*
Y408319D01*
X519551D01*
Y412319D01*
X519551Y413319D01*
X519551Y413681D01*
Y417681D01*
X519551D01*
Y418319D01*
X519551D01*
Y422681D01*
X519551D01*
Y423319D01*
X519551D01*
Y427681D01*
X515254D01*
Y430735D01*
X533591Y449073D01*
X556549D01*
X556703Y448889D01*
X556992Y448073D01*
X556547Y447493D01*
X556149Y446532D01*
X556079Y446000D01*
X560000D01*
X563921D01*
X563851Y446532D01*
X563453Y447493D01*
X563008Y448073D01*
X563297Y448889D01*
X563451Y449073D01*
X563500D01*
X563500Y449073D01*
X564046Y449181D01*
X564509Y449491D01*
X567474Y452456D01*
X568007Y452047D01*
X568968Y451649D01*
X570000Y451513D01*
X571032Y451649D01*
X571993Y452047D01*
X572819Y452681D01*
X573453Y453507D01*
X573851Y454468D01*
X573987Y455500D01*
X573851Y456532D01*
X573453Y457493D01*
X573008Y458073D01*
X573297Y458889D01*
X573451Y459073D01*
X575409D01*
X576573Y457909D01*
Y454091D01*
X571598Y449117D01*
X571032Y449351D01*
X570000Y449487D01*
X568968Y449351D01*
X568007Y448953D01*
X567181Y448319D01*
X566547Y447493D01*
X566149Y446532D01*
X566013Y445500D01*
X566149Y444468D01*
X566547Y443507D01*
X567181Y442681D01*
X568007Y442047D01*
X568968Y441649D01*
X570000Y441513D01*
X571032Y441649D01*
X571993Y442047D01*
X572819Y442681D01*
X573453Y443507D01*
X573851Y444468D01*
X573987Y445500D01*
X573851Y446532D01*
X573617Y447098D01*
X579009Y452491D01*
X579009Y452491D01*
X579319Y452954D01*
X579427Y453500D01*
X579427Y453500D01*
Y458500D01*
X579427Y458500D01*
X579319Y459046D01*
X579009Y459509D01*
X579009Y459509D01*
X577009Y461509D01*
X576546Y461819D01*
X576000Y461927D01*
X576000Y461927D01*
X573451D01*
X573297Y462111D01*
X573008Y462927D01*
X573453Y463507D01*
X573851Y464468D01*
X573987Y465500D01*
X573851Y466532D01*
X573453Y467493D01*
X572819Y468319D01*
X571993Y468953D01*
X571032Y469351D01*
X570000Y469487D01*
X568968Y469351D01*
X568007Y468953D01*
X567181Y468319D01*
X566547Y467493D01*
X566149Y466532D01*
X566013Y465500D01*
X566149Y464468D01*
X566547Y463507D01*
X566992Y462927D01*
X566703Y462111D01*
X566549Y461927D01*
X563451D01*
X563297Y462111D01*
X563008Y462927D01*
X563453Y463507D01*
X563851Y464468D01*
X563921Y465000D01*
X560000D01*
X556079D01*
X556149Y464468D01*
X556547Y463507D01*
X556992Y462927D01*
X556703Y462111D01*
X556549Y461927D01*
X524500D01*
X524500Y461927D01*
X523954Y461819D01*
X523491Y461509D01*
X523491Y461509D01*
X502991Y441009D01*
X502681Y440546D01*
X502573Y440000D01*
X502573Y440000D01*
Y418500D01*
X502573Y418500D01*
X502681Y417954D01*
X502991Y417491D01*
X505991Y414491D01*
X505991Y414491D01*
X506454Y414181D01*
X507000Y414073D01*
X507000Y414073D01*
X507395D01*
X507884Y413584D01*
X507862Y412465D01*
X507265Y411927D01*
X506000D01*
X506000Y411927D01*
X505454Y411819D01*
X504991Y411509D01*
X503491Y410009D01*
X503181Y409546D01*
X503073Y409000D01*
X503073Y409000D01*
Y399000D01*
X503073Y399000D01*
X503181Y398454D01*
X503491Y397991D01*
X507991Y393491D01*
X507991Y393491D01*
X508454Y393181D01*
X509000Y393073D01*
X509000Y393073D01*
X529526D01*
X529590Y392586D01*
X529943Y391735D01*
X530504Y391004D01*
X531235Y390443D01*
X532086Y390090D01*
X533000Y389970D01*
X533914Y390090D01*
X534251Y390230D01*
X540396Y384085D01*
X539829Y383238D01*
X539414Y383410D01*
X538500Y383530D01*
X537586Y383410D01*
X536735Y383057D01*
X536004Y382496D01*
X535443Y381765D01*
X535090Y380914D01*
X534970Y380000D01*
X535090Y379086D01*
X535443Y378235D01*
X536004Y377504D01*
X536735Y376943D01*
X537586Y376590D01*
X538500Y376470D01*
X539414Y376590D01*
X540265Y376943D01*
X540420Y377062D01*
X575991Y341491D01*
X575991Y341491D01*
X576454Y341181D01*
X577000Y341073D01*
X577000Y341073D01*
X614549D01*
Y337996D01*
X610941D01*
Y333004D01*
X610941D01*
Y332996D01*
X610941D01*
Y328996D01*
X610941Y328004D01*
X610941Y327004D01*
Y323996D01*
X610941Y323004D01*
X610941Y322004D01*
Y318996D01*
X610941Y318004D01*
X610941Y317004D01*
Y313996D01*
X610941Y313004D01*
X610941Y312004D01*
Y308996D01*
X610941Y308004D01*
X610941Y307004D01*
Y303996D01*
X610941Y303004D01*
X610941Y302004D01*
Y298996D01*
X610941Y298004D01*
X610941Y297004D01*
Y293996D01*
X610941Y293004D01*
X610941Y292004D01*
Y288004D01*
X621012D01*
Y289073D01*
X674618D01*
X674618Y289073D01*
X674780Y289105D01*
X675507Y288547D01*
X676468Y288149D01*
X677500Y288013D01*
X678532Y288149D01*
X679493Y288547D01*
X680319Y289181D01*
X680953Y290007D01*
X681351Y290968D01*
X681487Y292000D01*
X681351Y293032D01*
X680953Y293993D01*
X680319Y294819D01*
X679493Y295453D01*
X678532Y295851D01*
X677500Y295987D01*
X676468Y295851D01*
X675507Y295453D01*
X674681Y294819D01*
X674047Y293993D01*
X673649Y293032D01*
X673513Y292000D01*
X673450Y291927D01*
X621719D01*
X621012Y292635D01*
Y293366D01*
X621719Y294073D01*
X671000D01*
X671000Y294073D01*
X671546Y294181D01*
X672009Y294491D01*
X675902Y298383D01*
X676468Y298149D01*
X677500Y298013D01*
X678532Y298149D01*
X679493Y298547D01*
X680319Y299181D01*
X680953Y300007D01*
X681351Y300968D01*
X681487Y302000D01*
X681351Y303032D01*
X680953Y303993D01*
X680319Y304819D01*
X679493Y305453D01*
X678532Y305851D01*
X677500Y305987D01*
X676468Y305851D01*
X675507Y305453D01*
X674681Y304819D01*
X674047Y303993D01*
X673649Y303032D01*
X673513Y302000D01*
X673649Y300968D01*
X673883Y300402D01*
X670409Y296927D01*
X621719D01*
X621012Y297635D01*
Y298365D01*
X621719Y299073D01*
X666000D01*
X666000Y299073D01*
X666546Y299181D01*
X667009Y299491D01*
X675902Y308383D01*
X676468Y308149D01*
X677500Y308013D01*
X678532Y308149D01*
X679493Y308547D01*
X680319Y309181D01*
X680953Y310007D01*
X681351Y310968D01*
X681487Y312000D01*
X681351Y313032D01*
X680953Y313993D01*
X680319Y314819D01*
X679493Y315453D01*
X678532Y315851D01*
X677500Y315987D01*
X676468Y315851D01*
X675507Y315453D01*
X674681Y314819D01*
X674047Y313993D01*
X673649Y313032D01*
X673513Y312000D01*
X673649Y310968D01*
X673883Y310402D01*
X665409Y301927D01*
X621719D01*
X621012Y302635D01*
Y303365D01*
X621719Y304073D01*
X661000D01*
X661000Y304073D01*
X661546Y304181D01*
X662009Y304491D01*
X675902Y318383D01*
X676468Y318149D01*
X677500Y318013D01*
X678532Y318149D01*
X679493Y318547D01*
X680319Y319181D01*
X680953Y320007D01*
X681351Y320968D01*
X681487Y322000D01*
X681351Y323032D01*
X680953Y323993D01*
X680319Y324819D01*
X679493Y325453D01*
X678532Y325851D01*
X677500Y325987D01*
X676468Y325851D01*
X675507Y325453D01*
X674681Y324819D01*
X674047Y323993D01*
X673649Y323032D01*
X673513Y322000D01*
X673649Y320968D01*
X673883Y320402D01*
X660409Y306927D01*
X621719D01*
X621012Y307634D01*
Y308366D01*
X621719Y309073D01*
X656000D01*
X656000Y309073D01*
X656546Y309181D01*
X657009Y309491D01*
X675566Y328047D01*
X681453D01*
Y335953D01*
X673547D01*
Y330066D01*
X655409Y311927D01*
X621719D01*
X621012Y312634D01*
Y313366D01*
X621719Y314073D01*
X637000D01*
X637000Y314073D01*
X637546Y314181D01*
X638009Y314491D01*
X642509Y318991D01*
X642509Y318991D01*
X642819Y319454D01*
X642927Y320000D01*
X642927Y320000D01*
Y345500D01*
X642927Y345500D01*
X642819Y346046D01*
X642509Y346509D01*
X642509Y346509D01*
X639509Y349509D01*
X639046Y349819D01*
X638500Y349927D01*
X638500Y349927D01*
X622427D01*
Y361909D01*
X624683Y364164D01*
X625935Y364002D01*
X626181Y363681D01*
X627007Y363047D01*
X627968Y362649D01*
X629000Y362513D01*
X630032Y362649D01*
X630993Y363047D01*
X631819Y363681D01*
X632453Y364507D01*
X632851Y365468D01*
X632865Y365573D01*
X646000D01*
X646000Y365573D01*
X646546Y365681D01*
X647009Y365991D01*
X652509Y371491D01*
X652509Y371491D01*
X652819Y371954D01*
X652927Y372500D01*
Y447211D01*
X653122Y448130D01*
X655000D01*
Y449720D01*
X655500D01*
Y450098D01*
X657878D01*
Y450098D01*
Y454035D01*
Y457972D01*
Y461909D01*
Y465846D01*
Y469783D01*
Y473721D01*
Y474933D01*
X655500D01*
X653122D01*
Y474770D01*
X643249D01*
X640509Y477509D01*
X640046Y477819D01*
X639500Y477927D01*
X639500Y477927D01*
X632687D01*
X632453Y478493D01*
X631819Y479319D01*
X630993Y479953D01*
X630032Y480351D01*
X629000Y480487D01*
D02*
G37*
G36*
X560500Y469421D02*
Y466000D01*
X563921D01*
X563851Y466532D01*
X563453Y467493D01*
X562819Y468319D01*
X561993Y468953D01*
X561032Y469351D01*
X560500Y469421D01*
D02*
G37*
G36*
X559500D02*
X558968Y469351D01*
X558007Y468953D01*
X557181Y468319D01*
X556547Y467493D01*
X556149Y466532D01*
X556079Y466000D01*
X559500D01*
Y469421D01*
D02*
G37*
G36*
X657878Y449221D02*
X656000D01*
Y448130D01*
X657878D01*
Y449221D01*
D02*
G37*
G36*
X668902Y448201D02*
X666433D01*
Y447110D01*
X668902D01*
Y448201D01*
D02*
G37*
G36*
X665433D02*
X662965D01*
Y447110D01*
X665433D01*
Y448201D01*
D02*
G37*
G36*
X668902Y446110D02*
X666433D01*
Y445020D01*
X668902D01*
Y446110D01*
D02*
G37*
G36*
X665433D02*
X662965D01*
Y445020D01*
X665433D01*
Y446110D01*
D02*
G37*
G36*
X563921Y445000D02*
X560500D01*
Y441579D01*
X561032Y441649D01*
X561993Y442047D01*
X562819Y442681D01*
X563453Y443507D01*
X563851Y444468D01*
X563921Y445000D01*
D02*
G37*
G36*
X559500D02*
X556079D01*
X556149Y444468D01*
X556547Y443507D01*
X557181Y442681D01*
X558007Y442047D01*
X558968Y441649D01*
X559500Y441579D01*
Y445000D01*
D02*
G37*
G36*
X560500Y439421D02*
Y436000D01*
X563921D01*
X563851Y436532D01*
X563453Y437493D01*
X562819Y438319D01*
X561993Y438953D01*
X561032Y439351D01*
X560500Y439421D01*
D02*
G37*
G36*
X559500D02*
X558968Y439351D01*
X558007Y438953D01*
X557181Y438319D01*
X556547Y437493D01*
X556149Y436532D01*
X556079Y436000D01*
X559500D01*
Y439421D01*
D02*
G37*
G36*
X563921Y435000D02*
X560500D01*
Y431579D01*
X561032Y431649D01*
X561993Y432047D01*
X562819Y432681D01*
X563453Y433507D01*
X563851Y434468D01*
X563921Y435000D01*
D02*
G37*
G36*
X559500D02*
X556079D01*
X556149Y434468D01*
X556547Y433507D01*
X557181Y432681D01*
X558007Y432047D01*
X558968Y431649D01*
X559500Y431579D01*
Y435000D01*
D02*
G37*
G36*
X533724Y427681D02*
X528500D01*
Y426000D01*
X533724D01*
Y427681D01*
D02*
G37*
G36*
X560500Y429421D02*
Y426000D01*
X563921D01*
X563851Y426532D01*
X563453Y427493D01*
X562819Y428319D01*
X561993Y428953D01*
X561032Y429351D01*
X560500Y429421D01*
D02*
G37*
G36*
X559500D02*
X558968Y429351D01*
X558007Y428953D01*
X557181Y428319D01*
X556547Y427493D01*
X556149Y426532D01*
X556079Y426000D01*
X559500D01*
Y429421D01*
D02*
G37*
G36*
X527500Y427681D02*
X522276D01*
Y426000D01*
X527500D01*
Y427681D01*
D02*
G37*
G36*
X563921Y425000D02*
X560500D01*
Y421579D01*
X561032Y421649D01*
X561993Y422047D01*
X562819Y422681D01*
X563453Y423507D01*
X563851Y424468D01*
X563921Y425000D01*
D02*
G37*
G36*
X559500D02*
X556079D01*
X556149Y424468D01*
X556547Y423507D01*
X557181Y422681D01*
X558007Y422047D01*
X558968Y421649D01*
X559500Y421579D01*
Y425000D01*
D02*
G37*
G36*
X560500Y419421D02*
Y416000D01*
X563921D01*
X563851Y416532D01*
X563453Y417493D01*
X562819Y418319D01*
X561993Y418953D01*
X561032Y419351D01*
X560500Y419421D01*
D02*
G37*
G36*
X559500D02*
X558968Y419351D01*
X558007Y418953D01*
X557181Y418319D01*
X556547Y417493D01*
X556149Y416532D01*
X556079Y416000D01*
X559500D01*
Y419421D01*
D02*
G37*
G36*
X533724Y425000D02*
X528000D01*
X522276D01*
Y423681D01*
X522276Y422681D01*
X522276Y422319D01*
Y418681D01*
X522276Y417681D01*
X522276Y417319D01*
Y416000D01*
X528000D01*
X533724D01*
Y417319D01*
X533724Y418319D01*
X533724Y418681D01*
Y422319D01*
X533724Y423319D01*
X533724Y423681D01*
Y425000D01*
D02*
G37*
G36*
X563921Y415000D02*
X560500D01*
Y411579D01*
X561032Y411649D01*
X561993Y412047D01*
X562819Y412681D01*
X563453Y413507D01*
X563851Y414468D01*
X563921Y415000D01*
D02*
G37*
G36*
X559500D02*
X556079D01*
X556149Y414468D01*
X556547Y413507D01*
X557181Y412681D01*
X558007Y412047D01*
X558968Y411649D01*
X559500Y411579D01*
Y415000D01*
D02*
G37*
G36*
X533724D02*
X528000D01*
X522276D01*
Y413681D01*
X522276Y412681D01*
X522276Y412319D01*
Y411000D01*
X528000D01*
X533724D01*
Y412319D01*
X533724Y413319D01*
X533724Y413681D01*
Y415000D01*
D02*
G37*
G36*
X560500Y409421D02*
Y406000D01*
X563921D01*
X563851Y406532D01*
X563453Y407493D01*
X562819Y408319D01*
X561993Y408953D01*
X561032Y409351D01*
X560500Y409421D01*
D02*
G37*
G36*
X559500D02*
X558968Y409351D01*
X558007Y408953D01*
X557181Y408319D01*
X556547Y407493D01*
X556149Y406532D01*
X556079Y406000D01*
X559500D01*
Y409421D01*
D02*
G37*
G36*
X563921Y405000D02*
X560500D01*
Y401579D01*
X561032Y401649D01*
X561993Y402047D01*
X562819Y402681D01*
X563453Y403507D01*
X563851Y404468D01*
X563921Y405000D01*
D02*
G37*
G36*
X559500D02*
X556079D01*
X556149Y404468D01*
X556547Y403507D01*
X557181Y402681D01*
X558007Y402047D01*
X558968Y401649D01*
X559500Y401579D01*
Y405000D01*
D02*
G37*
G36*
X560500Y399421D02*
Y396000D01*
X563921D01*
X563851Y396532D01*
X563453Y397493D01*
X562819Y398319D01*
X561993Y398953D01*
X561032Y399351D01*
X560500Y399421D01*
D02*
G37*
G36*
X559500D02*
X558968Y399351D01*
X558007Y398953D01*
X557181Y398319D01*
X556547Y397493D01*
X556149Y396532D01*
X556079Y396000D01*
X559500D01*
Y399421D01*
D02*
G37*
G36*
X563921Y395000D02*
X560500D01*
Y391579D01*
X561032Y391649D01*
X561993Y392047D01*
X562819Y392681D01*
X563453Y393507D01*
X563851Y394468D01*
X563921Y395000D01*
D02*
G37*
G36*
X559500D02*
X556079D01*
X556149Y394468D01*
X556547Y393507D01*
X557181Y392681D01*
X558007Y392047D01*
X558968Y391649D01*
X559500Y391579D01*
Y395000D01*
D02*
G37*
G36*
X632953Y360453D02*
X629500D01*
Y357000D01*
X632953D01*
Y360453D01*
D02*
G37*
G36*
X628500D02*
X625047D01*
Y357000D01*
X628500D01*
Y360453D01*
D02*
G37*
G36*
X632953Y356000D02*
X629500D01*
Y352547D01*
X632953D01*
Y356000D01*
D02*
G37*
G36*
X628500D02*
X625047D01*
Y352547D01*
X628500D01*
Y356000D01*
D02*
G37*
G36*
X688000Y335921D02*
Y332500D01*
X691421D01*
X691351Y333032D01*
X690953Y333993D01*
X690319Y334819D01*
X689493Y335453D01*
X688532Y335851D01*
X688000Y335921D01*
D02*
G37*
G36*
X687000D02*
X686468Y335851D01*
X685507Y335453D01*
X684681Y334819D01*
X684047Y333993D01*
X683649Y333032D01*
X683579Y332500D01*
X687000D01*
Y335921D01*
D02*
G37*
G36*
X587500Y339030D02*
X586586Y338910D01*
X585735Y338557D01*
X585004Y337996D01*
X584443Y337265D01*
X584090Y336414D01*
X583970Y335500D01*
X584090Y334586D01*
X584443Y333735D01*
X585004Y333004D01*
X585735Y332443D01*
X586586Y332090D01*
X587500Y331970D01*
X588414Y332090D01*
X589265Y332443D01*
X589996Y333004D01*
X590347Y333461D01*
X596157D01*
X596965Y332996D01*
X596965Y332004D01*
Y331000D01*
X607035D01*
Y332004D01*
X607035Y332996D01*
X607035Y333996D01*
Y337996D01*
X596965D01*
Y337539D01*
X590347D01*
X589996Y337996D01*
X589265Y338557D01*
X588414Y338910D01*
X587500Y339030D01*
D02*
G37*
G36*
X691421Y331500D02*
X688000D01*
Y328079D01*
X688532Y328149D01*
X689493Y328547D01*
X690319Y329181D01*
X690953Y330007D01*
X691351Y330968D01*
X691421Y331500D01*
D02*
G37*
G36*
X687000D02*
X683579D01*
X683649Y330968D01*
X684047Y330007D01*
X684681Y329181D01*
X685507Y328547D01*
X686468Y328149D01*
X687000Y328079D01*
Y331500D01*
D02*
G37*
G36*
X607035Y330000D02*
X596965D01*
Y328996D01*
X596965Y328004D01*
X596965Y327004D01*
Y326000D01*
X607035D01*
Y327004D01*
X607035Y327996D01*
X607035Y328996D01*
Y330000D01*
D02*
G37*
G36*
X688000Y325921D02*
Y322500D01*
X691421D01*
X691351Y323032D01*
X690953Y323993D01*
X690319Y324819D01*
X689493Y325453D01*
X688532Y325851D01*
X688000Y325921D01*
D02*
G37*
G36*
X687000D02*
X686468Y325851D01*
X685507Y325453D01*
X684681Y324819D01*
X684047Y323993D01*
X683649Y323032D01*
X683579Y322500D01*
X687000D01*
Y325921D01*
D02*
G37*
G36*
X691421Y321500D02*
X688000D01*
Y318079D01*
X688532Y318149D01*
X689493Y318547D01*
X690319Y319181D01*
X690953Y320007D01*
X691351Y320968D01*
X691421Y321500D01*
D02*
G37*
G36*
X687000D02*
X683579D01*
X683649Y320968D01*
X684047Y320007D01*
X684681Y319181D01*
X685507Y318547D01*
X686468Y318149D01*
X687000Y318079D01*
Y321500D01*
D02*
G37*
G36*
X607035Y325000D02*
X596965D01*
Y323996D01*
X596965Y323004D01*
X596965Y322004D01*
Y318996D01*
X596965Y318004D01*
X596965Y317004D01*
Y316000D01*
X607035D01*
Y317004D01*
X607035Y317996D01*
X607035Y318996D01*
Y322004D01*
X607035Y322996D01*
X607035Y323996D01*
Y325000D01*
D02*
G37*
G36*
X688000Y315921D02*
Y312500D01*
X691421D01*
X691351Y313032D01*
X690953Y313993D01*
X690319Y314819D01*
X689493Y315453D01*
X688532Y315851D01*
X688000Y315921D01*
D02*
G37*
G36*
X687000D02*
X686468Y315851D01*
X685507Y315453D01*
X684681Y314819D01*
X684047Y313993D01*
X683649Y313032D01*
X683579Y312500D01*
X687000D01*
Y315921D01*
D02*
G37*
G36*
X607035Y315000D02*
X596965D01*
Y313996D01*
X596965Y313004D01*
X596965Y312004D01*
Y311000D01*
X607035D01*
Y312004D01*
X607035Y312996D01*
X607035Y313996D01*
Y315000D01*
D02*
G37*
G36*
X691421Y311500D02*
X688000D01*
Y308079D01*
X688532Y308149D01*
X689493Y308547D01*
X690319Y309181D01*
X690953Y310007D01*
X691351Y310968D01*
X691421Y311500D01*
D02*
G37*
G36*
X687000D02*
X683579D01*
X683649Y310968D01*
X684047Y310007D01*
X684681Y309181D01*
X685507Y308547D01*
X686468Y308149D01*
X687000Y308079D01*
Y311500D01*
D02*
G37*
G36*
X607035Y310000D02*
X596965D01*
Y308996D01*
X596965Y308004D01*
X596965Y307004D01*
Y306000D01*
X607035D01*
Y307004D01*
X607035Y307996D01*
X607035Y308996D01*
Y310000D01*
D02*
G37*
G36*
X688000Y305921D02*
Y302500D01*
X691421D01*
X691351Y303032D01*
X690953Y303993D01*
X690319Y304819D01*
X689493Y305453D01*
X688532Y305851D01*
X688000Y305921D01*
D02*
G37*
G36*
X687000D02*
X686468Y305851D01*
X685507Y305453D01*
X684681Y304819D01*
X684047Y303993D01*
X683649Y303032D01*
X683579Y302500D01*
X687000D01*
Y305921D01*
D02*
G37*
G36*
X607035Y305000D02*
X596965D01*
Y303996D01*
X596965Y303004D01*
X596965Y302004D01*
Y301000D01*
X607035D01*
Y302004D01*
X607035Y302996D01*
X607035Y303996D01*
Y305000D01*
D02*
G37*
G36*
X691421Y301500D02*
X688000D01*
Y298079D01*
X688532Y298149D01*
X689493Y298547D01*
X690319Y299181D01*
X690953Y300007D01*
X691351Y300968D01*
X691421Y301500D01*
D02*
G37*
G36*
X687000D02*
X683579D01*
X683649Y300968D01*
X684047Y300007D01*
X684681Y299181D01*
X685507Y298547D01*
X686468Y298149D01*
X687000Y298079D01*
Y301500D01*
D02*
G37*
G36*
X607035Y300000D02*
X596965D01*
Y298996D01*
X596965Y298004D01*
X596965Y297004D01*
Y296000D01*
X607035D01*
Y297004D01*
X607035Y297996D01*
X607035Y298996D01*
Y300000D01*
D02*
G37*
G36*
X688000Y295921D02*
Y292500D01*
X691421D01*
X691351Y293032D01*
X690953Y293993D01*
X690319Y294819D01*
X689493Y295453D01*
X688532Y295851D01*
X688000Y295921D01*
D02*
G37*
G36*
X687000D02*
X686468Y295851D01*
X685507Y295453D01*
X684681Y294819D01*
X684047Y293993D01*
X683649Y293032D01*
X683579Y292500D01*
X687000D01*
Y295921D01*
D02*
G37*
G36*
X607035Y295000D02*
X596965D01*
Y293996D01*
X596965Y293004D01*
X596965Y292004D01*
Y291000D01*
X607035D01*
Y292004D01*
X607035Y292996D01*
X607035Y293996D01*
Y295000D01*
D02*
G37*
G36*
X691421Y291500D02*
X688000D01*
Y288079D01*
X688532Y288149D01*
X689493Y288547D01*
X690319Y289181D01*
X690953Y290007D01*
X691351Y290968D01*
X691421Y291500D01*
D02*
G37*
G36*
X687000D02*
X683579D01*
X683649Y290968D01*
X684047Y290007D01*
X684681Y289181D01*
X685507Y288547D01*
X686468Y288149D01*
X687000Y288079D01*
Y291500D01*
D02*
G37*
G36*
X607035Y290000D02*
X602500D01*
Y288004D01*
X607035D01*
Y290000D01*
D02*
G37*
G36*
X601500D02*
X596965D01*
Y288004D01*
X601500D01*
Y290000D01*
D02*
G37*
%LPD*%
G36*
X556703Y458889D02*
X556992Y458073D01*
X556547Y457493D01*
X556149Y456532D01*
X556079Y456000D01*
X560000D01*
Y455000D01*
X556079D01*
X556149Y454468D01*
X556547Y453507D01*
X556992Y452927D01*
X556703Y452111D01*
X556549Y451927D01*
X533000D01*
X533000Y451927D01*
X532454Y451819D01*
X531991Y451509D01*
X531991Y451509D01*
X512817Y432336D01*
X512508Y431873D01*
X512399Y431327D01*
X512399Y431327D01*
Y427681D01*
X508102D01*
X507927Y428609D01*
Y431281D01*
X508156Y431562D01*
X508868Y432053D01*
X509500Y431970D01*
X510414Y432090D01*
X511265Y432443D01*
X511996Y433004D01*
X512557Y433735D01*
X512910Y434586D01*
X513030Y435500D01*
X512910Y436414D01*
X512557Y437265D01*
X511996Y437996D01*
X511265Y438557D01*
X510414Y438910D01*
X509500Y439030D01*
X508586Y438910D01*
X507735Y438557D01*
X507004Y437996D01*
X506443Y437265D01*
X506427Y437228D01*
X505427Y437427D01*
Y439409D01*
X525091Y459073D01*
X556549D01*
X556703Y458889D01*
D02*
G37*
G36*
X507562Y409003D02*
X508102Y408319D01*
Y407681D01*
X508102D01*
Y403319D01*
X512538D01*
X512594Y403041D01*
X512903Y402578D01*
X518491Y396991D01*
X518491Y396991D01*
X518585Y396927D01*
X518282Y395927D01*
X509591D01*
X505927Y399591D01*
Y408409D01*
X506557Y409038D01*
X507562Y409003D01*
D02*
G37*
G36*
X547869Y397824D02*
Y390500D01*
X547993Y389876D01*
X548347Y389347D01*
X553346Y384347D01*
X553876Y383993D01*
X554500Y383869D01*
X556397D01*
X556547Y383507D01*
X557181Y382681D01*
X558007Y382047D01*
X558968Y381649D01*
X560000Y381513D01*
X561032Y381649D01*
X561993Y382047D01*
X562819Y382681D01*
X563453Y383507D01*
X563603Y383869D01*
X566047D01*
Y381547D01*
X571646D01*
X573347Y379847D01*
X573876Y379493D01*
X574500Y379369D01*
X593842D01*
X594335Y378369D01*
X594047Y377993D01*
X593649Y377032D01*
X593513Y376000D01*
X593649Y374968D01*
X594047Y374007D01*
X594681Y373181D01*
X595507Y372547D01*
X596468Y372149D01*
X597500Y372013D01*
X598532Y372149D01*
X599493Y372547D01*
X600319Y373181D01*
X600953Y374007D01*
X601351Y374968D01*
X601487Y376000D01*
X601351Y377032D01*
X600953Y377993D01*
X600665Y378369D01*
X601158Y379369D01*
X615824D01*
X618693Y376500D01*
X592824Y350631D01*
X590613D01*
X590557Y350765D01*
X589996Y351496D01*
X589265Y352057D01*
X588414Y352410D01*
X587500Y352530D01*
X586586Y352410D01*
X585735Y352057D01*
X585004Y351496D01*
X584443Y350765D01*
X584090Y349914D01*
X583970Y349000D01*
X584090Y348086D01*
X584363Y347427D01*
X584102Y346806D01*
X583802Y346427D01*
X582091D01*
X536270Y392249D01*
X536410Y392586D01*
X536530Y393500D01*
X536410Y394414D01*
X536057Y395265D01*
X535821Y395573D01*
X536314Y396573D01*
X538303D01*
X538443Y396235D01*
X539004Y395504D01*
X539735Y394943D01*
X540586Y394590D01*
X541500Y394470D01*
X542414Y394590D01*
X543265Y394943D01*
X543996Y395504D01*
X544557Y396235D01*
X544910Y397086D01*
X545030Y398000D01*
X544910Y398914D01*
X544557Y399765D01*
X545362Y400331D01*
X547869Y397824D01*
D02*
G37*
%LPC*%
G36*
X598000Y369921D02*
Y366500D01*
X601421D01*
X601351Y367032D01*
X600953Y367993D01*
X600319Y368819D01*
X599493Y369453D01*
X598532Y369851D01*
X598000Y369921D01*
D02*
G37*
G36*
X597000D02*
X596468Y369851D01*
X595507Y369453D01*
X594681Y368819D01*
X594047Y367993D01*
X593649Y367032D01*
X593579Y366500D01*
X597000D01*
Y369921D01*
D02*
G37*
G36*
X601421Y365500D02*
X598000D01*
Y362079D01*
X598532Y362149D01*
X599493Y362547D01*
X600319Y363181D01*
X600953Y364007D01*
X601351Y364968D01*
X601421Y365500D01*
D02*
G37*
G36*
X597000D02*
X593579D01*
X593649Y364968D01*
X594047Y364007D01*
X594681Y363181D01*
X595507Y362547D01*
X596468Y362149D01*
X597000Y362079D01*
Y365500D01*
D02*
G37*
%LPD*%
D14*
X620872Y362372D02*
X625000Y366500D01*
X620872Y362372D02*
X621000Y362243D01*
X625000Y366500D02*
X629000D01*
X629500Y367000D01*
X605500Y416500D02*
X629000D01*
X584500Y395500D02*
X605500Y416500D01*
X570000Y395500D02*
X584500D01*
X538500Y380000D02*
X539000Y379500D01*
X540000D01*
X577000Y342500D01*
X615508D01*
X615976Y342031D01*
Y335500D02*
Y342031D01*
X581500Y345000D02*
X624031D01*
X624500Y344531D01*
X533000Y393500D02*
X581500Y345000D01*
X624500Y333000D02*
Y344531D01*
X622000Y330500D02*
X624500Y333000D01*
X615976Y330500D02*
X622000D01*
X649500Y394000D02*
Y399020D01*
X648558Y400058D02*
Y455057D01*
X635000Y386500D02*
X648558Y400058D01*
X629000Y386500D02*
X635000D01*
X636500Y321500D02*
Y341500D01*
X616720Y331243D02*
X617243D01*
X621000Y348969D02*
Y362243D01*
X615976Y330500D02*
X616720Y331243D01*
X627000Y325500D02*
X629500Y328000D01*
X615976Y325500D02*
X627000D01*
X635500Y320500D02*
X636500Y321500D01*
X615976Y320500D02*
X635500D01*
X615976Y315500D02*
X637000D01*
X641500Y320000D01*
Y345500D01*
X638500Y348500D02*
X641500Y345500D01*
X621469Y348500D02*
X638500D01*
X621000Y348969D02*
X621469Y348500D01*
X656000Y310500D02*
X677500Y332000D01*
X615976Y310500D02*
X656000D01*
X661000Y305500D02*
X677500Y322000D01*
X615976Y305500D02*
X661000D01*
X666000Y300500D02*
X677500Y312000D01*
X615976Y300500D02*
X666000D01*
X671000Y295500D02*
X677500Y302000D01*
X615976Y295500D02*
X671000D01*
X676119Y292000D02*
X677500D01*
X674618Y290500D02*
X676119Y292000D01*
X615976Y290500D02*
X674618D01*
X506500Y432500D02*
X509500Y435500D01*
X506500Y421500D02*
Y432500D01*
Y421500D02*
X507500Y420500D01*
X513827D01*
X533000Y393500D02*
Y394031D01*
X532531Y394500D02*
X533000Y394031D01*
X509000Y394500D02*
X532531D01*
X504500Y399000D02*
X509000Y394500D01*
X504500Y399000D02*
Y409000D01*
X506000Y410500D01*
X513827D01*
X519500Y398000D02*
X541500D01*
X513912Y403587D02*
X519500Y398000D01*
X513912Y403587D02*
Y405414D01*
X513827Y405500D02*
X513912Y405414D01*
X649958Y452458D02*
X651158Y453657D01*
X655500D01*
X649958Y399478D02*
Y452458D01*
X649500Y399020D02*
X649958Y399478D01*
X628500Y386000D02*
X629000Y386500D01*
X597500Y386000D02*
X628500D01*
X597500Y396000D02*
X598000Y396500D01*
X629000D01*
X570000Y445500D02*
X578000Y453500D01*
Y458500D01*
X576000Y460500D02*
X578000Y458500D01*
X524500Y460500D02*
X576000D01*
X504000Y440000D02*
X524500Y460500D01*
X504000Y418500D02*
Y440000D01*
Y418500D02*
X507000Y415500D01*
X513827D01*
X563500Y450500D02*
X567114Y454114D01*
X567232D01*
X568618Y455500D01*
X570000D01*
X533000Y450500D02*
X563500D01*
X513827Y431327D02*
X533000Y450500D01*
X513827Y425500D02*
Y431327D01*
X582000Y425500D02*
X584000D01*
X582000D02*
Y432500D01*
X604500Y446000D02*
Y462500D01*
X584000Y425500D02*
X604500Y446000D01*
X579000Y435500D02*
X582000Y432500D01*
X570000Y425500D02*
X582000D01*
X570000Y435500D02*
X579000D01*
X665933Y446610D02*
Y478421D01*
X655500Y447000D02*
Y449720D01*
Y364500D02*
Y447000D01*
X655890Y446610D01*
X665933D01*
X655500Y475333D02*
Y477500D01*
X656421Y478421D01*
X665933D01*
X604500Y462500D02*
X609000Y467000D01*
X620500Y437000D02*
X628500D01*
X629000Y436500D01*
X589000Y405500D02*
X620500Y437000D01*
X570000Y405500D02*
X589000D01*
X612000Y457000D02*
X628500D01*
X629000Y456500D01*
X609000Y454000D02*
X612000Y457000D01*
X609000Y445000D02*
Y454000D01*
X579500Y415500D02*
X609000Y445000D01*
X570000Y415500D02*
X579500D01*
X609000Y467000D02*
X628500D01*
X629000Y466500D01*
X630000Y355500D02*
X646500D01*
X629000Y356500D02*
X630000Y355500D01*
X646500D02*
X655500Y364500D01*
X629500Y367000D02*
X646000D01*
X651500Y372500D01*
Y451220D01*
X651969Y451689D01*
X655500D01*
X648558Y455057D02*
X649126Y455626D01*
X655500D01*
X629000Y396500D02*
X635000D01*
X647157Y408658D01*
Y456500D01*
X648252Y457594D01*
X655500D01*
X629500Y407000D02*
X636500D01*
X629000Y406500D02*
X629500Y407000D01*
X636500D02*
X645537Y416037D01*
Y457557D01*
X647543Y459563D01*
X655500D01*
X629000Y416500D02*
X634500D01*
X644058Y426057D01*
Y458057D01*
X647532Y461531D01*
X655500D01*
X629000Y426500D02*
X635000D01*
X642658Y434158D01*
Y459000D01*
X647157Y463500D01*
X655500D01*
X629000Y436500D02*
X634000D01*
X641000Y443500D01*
Y459563D01*
X646906Y465469D01*
X655500D01*
X629000Y446500D02*
X634500D01*
X639500Y451500D01*
Y460500D01*
X646437Y467437D01*
X655500D01*
X629000Y456500D02*
X635500D01*
X638000Y459000D01*
Y461500D01*
X645905Y469406D01*
X655500D01*
X629000Y466500D02*
X638500D01*
X643374Y471374D01*
X655500D01*
X629000Y476500D02*
X639500D01*
X642658Y473343D01*
X655500D01*
X629000Y486500D02*
X637500D01*
X648689Y475311D01*
X655500D01*
D15*
X615976Y315500D02*
D03*
X602000D02*
D03*
X615976Y320500D02*
D03*
X602000D02*
D03*
X615976Y325500D02*
D03*
X602000D02*
D03*
X615976Y330500D02*
D03*
X602000D02*
D03*
X615976Y335500D02*
D03*
X602000D02*
D03*
Y310500D02*
D03*
Y305500D02*
D03*
Y300500D02*
D03*
Y295500D02*
D03*
Y290500D02*
D03*
X615976Y310500D02*
D03*
Y305500D02*
D03*
Y300500D02*
D03*
Y295500D02*
D03*
Y290500D02*
D03*
D16*
X528000Y405500D02*
D03*
X513827D02*
D03*
X528000Y410500D02*
D03*
X513827D02*
D03*
X528000Y415500D02*
D03*
X513827D02*
D03*
X528000Y420500D02*
D03*
X513827D02*
D03*
X528000Y425500D02*
D03*
X513827D02*
D03*
D17*
X655500Y449720D02*
D03*
Y451689D02*
D03*
Y453657D02*
D03*
Y455626D02*
D03*
Y457594D02*
D03*
Y459563D02*
D03*
Y461531D02*
D03*
Y463500D02*
D03*
Y465469D02*
D03*
Y467437D02*
D03*
Y469406D02*
D03*
Y471374D02*
D03*
Y473343D02*
D03*
Y475311D02*
D03*
D18*
X665933Y446610D02*
D03*
Y478421D02*
D03*
D25*
X593500Y349000D02*
X621000Y376500D01*
X587500Y349000D02*
X593500D01*
X649500Y385500D02*
Y394000D01*
X641500Y377500D02*
X649500Y385500D01*
X574500Y381000D02*
X616500D01*
X621000Y376500D01*
X570000Y385500D02*
X574500Y381000D01*
X632056Y377500D02*
X641500D01*
X631956Y377400D02*
X632056Y377500D01*
X629900Y377400D02*
X631956D01*
X629000Y376500D02*
X629900Y377400D01*
X621000Y376500D02*
X629000D01*
X560000Y385500D02*
X570000D01*
X549500Y390500D02*
X554500Y385500D01*
X560000D01*
X549500Y390500D02*
Y398500D01*
X542500Y405500D02*
X549500Y398500D01*
X528000Y405500D02*
X542500D01*
X555000Y410500D02*
X560000Y405500D01*
X528000Y410500D02*
X555000D01*
X528000Y415500D02*
X560000D01*
X528000Y425500D02*
X560000D01*
D26*
X587500Y335500D02*
X602000D01*
X591000Y295000D02*
Y300500D01*
Y292000D02*
Y295000D01*
X591500Y295500D01*
X602000D01*
X591000Y300500D02*
Y305500D01*
Y300500D02*
X602000D01*
X591000Y305500D02*
Y310500D01*
Y305500D02*
X602000D01*
X591000Y310500D02*
Y315500D01*
Y310500D02*
X602000D01*
X591000Y315500D02*
Y325500D01*
Y315500D02*
X602000D01*
X591000Y325500D02*
Y329000D01*
Y325500D02*
X602000D01*
X593000Y331000D02*
X597793D01*
X597797Y330996D01*
X601504D01*
X602000Y330500D01*
X591000Y329000D02*
X593000Y331000D01*
X591000Y292000D02*
X592500Y290500D01*
X602000D01*
X560000Y465500D02*
Y475500D01*
Y435500D02*
Y445500D01*
Y425500D02*
Y435500D01*
Y415500D02*
Y425500D01*
Y405500D02*
Y415500D01*
Y395500D02*
Y405500D01*
D27*
X687500Y292000D02*
D03*
X677500D02*
D03*
X687500Y302000D02*
D03*
X677500D02*
D03*
X687500Y312000D02*
D03*
X677500D02*
D03*
X687500Y322000D02*
D03*
X677500D02*
D03*
X687500Y332000D02*
D03*
X629000Y486500D02*
D03*
Y476500D02*
D03*
Y466500D02*
D03*
Y456500D02*
D03*
Y446500D02*
D03*
Y436500D02*
D03*
Y426500D02*
D03*
Y416500D02*
D03*
Y406500D02*
D03*
Y396500D02*
D03*
Y386500D02*
D03*
Y376500D02*
D03*
Y366500D02*
D03*
X560000Y385500D02*
D03*
X570000Y395500D02*
D03*
X560000D02*
D03*
X570000Y405500D02*
D03*
X560000D02*
D03*
X570000Y415500D02*
D03*
X560000D02*
D03*
X570000Y425500D02*
D03*
X560000D02*
D03*
X570000Y435500D02*
D03*
X560000D02*
D03*
X570000Y445500D02*
D03*
X560000D02*
D03*
X570000Y455500D02*
D03*
X560000D02*
D03*
X570000Y465500D02*
D03*
X560000D02*
D03*
X570000Y475500D02*
D03*
X560000D02*
D03*
X597500Y366000D02*
D03*
Y376000D02*
D03*
Y386000D02*
D03*
D28*
X677500Y332000D02*
D03*
X629000Y356500D02*
D03*
X570000Y385500D02*
D03*
X597500Y396000D02*
D03*
D29*
X690000Y480000D02*
D03*
X680000Y460000D02*
D03*
X690000Y440000D02*
D03*
X680000Y420000D02*
D03*
X690000Y400000D02*
D03*
X680000Y380000D02*
D03*
X690000Y360000D02*
D03*
X680000Y340000D02*
D03*
X670000Y440000D02*
D03*
X660000Y420000D02*
D03*
X670000Y400000D02*
D03*
X660000Y380000D02*
D03*
X670000Y360000D02*
D03*
X660000Y340000D02*
D03*
X650000Y480000D02*
D03*
Y360000D02*
D03*
Y320000D02*
D03*
X610000Y480000D02*
D03*
X600000Y460000D02*
D03*
X610000Y440000D02*
D03*
X590000Y480000D02*
D03*
Y440000D02*
D03*
Y360000D02*
D03*
Y320000D02*
D03*
X580000Y300000D02*
D03*
X560000Y340000D02*
D03*
X570000Y320000D02*
D03*
X560000Y300000D02*
D03*
X550000Y480000D02*
D03*
Y440000D02*
D03*
Y360000D02*
D03*
X540000Y340000D02*
D03*
X550000Y320000D02*
D03*
X540000Y300000D02*
D03*
X530000Y480000D02*
D03*
Y440000D02*
D03*
X520000Y380000D02*
D03*
X530000Y360000D02*
D03*
X520000Y340000D02*
D03*
X530000Y320000D02*
D03*
X520000Y300000D02*
D03*
X510000Y480000D02*
D03*
X500000Y460000D02*
D03*
Y420000D02*
D03*
X510000Y400000D02*
D03*
X500000Y380000D02*
D03*
X510000Y360000D02*
D03*
X500000Y340000D02*
D03*
X510000Y320000D02*
D03*
X500000Y300000D02*
D03*
X587500Y349000D02*
D03*
Y335500D02*
D03*
X538500Y380000D02*
D03*
X636500Y341500D02*
D03*
X629500Y328000D02*
D03*
X509500Y435500D02*
D03*
X533000Y393500D02*
D03*
X541500Y398000D02*
D03*
M02*
